<svg xmlns="http://www.w3.org/2000/svg" xmlns:xlink="http://www.w3.org/1999/xlink" width="123.648" height="118.76" viewBox="0 0 123.648 118.76">
  <defs>
    <clipPath id="clip-path">
      <rect id="Rectangle_198" data-name="Rectangle 198" width="26.12" height="54.3" fill="none"/>
    </clipPath>
    <clipPath id="clip-path-2">
      <rect id="Rectangle_199" data-name="Rectangle 199" width="16.774" height="16.774" fill="none"/>
    </clipPath>
    <clipPath id="clip-path-3">
      <rect id="Rectangle_200" data-name="Rectangle 200" width="31.008" height="66.808" fill="none"/>
    </clipPath>
    <clipPath id="clip-path-4">
      <rect id="Rectangle_201" data-name="Rectangle 201" width="61.632" height="79.317" fill="none"/>
    </clipPath>
  </defs>
  <g id="logo" transform="translate(0 0)">
    <path id="Path_33" data-name="Path 33" d="M19.41,51.9H34.938v66.808H19.41ZM45.577,13.946h4.457V0H43.469c-16.1,0-23.963,11.454-23.963,29.858v9.585H35.034V26.551c0-7.956,2.923-12.557,10.64-12.557" transform="translate(73.614 0)" fill="#3070bb"/>
    <g id="Group_185" data-name="Group 185" transform="translate(0 64.46)" style="mix-blend-mode: normal;isolation: isolate">
      <g id="Group_184" data-name="Group 184">
        <g id="Group_183" data-name="Group 183" clip-path="url(#clip-path)">
          <path id="Path_34" data-name="Path 34" d="M15.528,40.768V13.45H0V37.892C0,56.3,7.956,67.75,23.963,67.75H26.12V53.372c-7.764,0-10.64-4.793-10.64-12.7" transform="translate(0 -13.45)" fill="#b8d253"/>
        </g>
      </g>
    </g>
    <g id="Group_188" data-name="Group 188" transform="translate(30.386 30.097)" style="mix-blend-mode: normal;isolation: isolate">
      <g id="Group_187" data-name="Group 187">
        <g id="Group_186" data-name="Group 186" clip-path="url(#clip-path-2)">
          <path id="Path_35" data-name="Path 35" d="M23.111,14.523A8.386,8.386,0,1,1,14.58,6.28h.144a8.385,8.385,0,0,1,8.387,8.243" transform="translate(-6.339 -6.28)" fill="#97c353"/>
        </g>
      </g>
    </g>
    <g id="Group_191" data-name="Group 191" transform="translate(31.008 51.904)" style="mix-blend-mode: normal;isolation: isolate">
      <g id="Group_190" data-name="Group 190">
        <g id="Group_189" data-name="Group 189" clip-path="url(#clip-path-3)">
          <path id="Path_36" data-name="Path 36" d="M37.478,10.83H6.47V77.638H22v-54.3h15.48V10.83" transform="translate(-6.47 -10.83)" fill="#97c353"/>
        </g>
      </g>
    </g>
    <path id="Path_37" data-name="Path 37" d="M29.584,12.057A8.387,8.387,0,1,1,21.2,3.67a8.387,8.387,0,0,1,8.387,8.387" transform="translate(48.583 13.919)" fill="#4aa45a"/>
    <g id="Group_194" data-name="Group 194" transform="translate(62.016 39.395)" style="mix-blend-mode: normal;isolation: isolate">
      <g id="Group_193" data-name="Group 193">
        <g id="Group_192" data-name="Group 192" clip-path="url(#clip-path-4)">
          <path id="Path_38" data-name="Path 38" d="M28.468,8.22H12.94V87.537H28.468V20.729h46.1V8.22Z" transform="translate(-12.94 -8.22)" fill="#4aa45a"/>
        </g>
      </g>
    </g>
  </g>
</svg>
